<svg width="24" height="24" viewBox="0 0 24 24" fill="none" xmlns="http://www.w3.org/2000/svg">
    <!-- 液冷图标：水滴包裹雪花 -->
    <path fill-rule="evenodd" clip-rule="evenodd" d="M12 22C16.9706 22 21 17.9706 21 13C21 10.3541 19.5539 7.73199 17.5199 5.62678C16.0357 4.09099 14.3906 2.87979 12.8358 1.9478C12.5761 1.79213 12.2961 1.70992 12.0001 1.70889C11.6961 1.70889 11.4161 1.79213 11.1643 1.9478C9.60951 2.87979 7.96441 4.09099 6.48019 5.62678C4.44613 7.73199 3 10.3541 3 13C3 17.9706 7.02944 22 12 22ZM12 10V12H14V14H12V16H10V14H8V12H10V10H12Z" fill="black"/>
</svg>