<svg width="24" height="24" viewBox="0 0 24 24" fill="none" xmlns="http://www.w3.org/2000/svg">
    <!-- 实验/烧瓶图标 -->
    <path fill-rule="evenodd" clip-rule="evenodd" d="M14 2H10V4H11V9.58579L6.70711 13.8787C5.44093 15.1449 5.22521 17.0863 6.0667 18.6657C6.93652 20.2982 8.76196 21.5 12 21.5C15.238 21.5 17.0635 20.2982 17.9333 18.6657C18.7748 17.0863 18.5591 15.1449 17.2929 13.8787L13 9.58579V4H14V2ZM12 11L15.8787 14.8787C16.3216 15.3216 16.3533 15.8239 16.166 16.1754C15.938 16.6033 15.238 17.5 12 17.5C8.76196 17.5 8.06197 16.6033 7.83398 16.1754C7.64672 15.8239 7.67838 15.3216 8.12132 14.8787L12 11Z" fill="black"/>
    <!-- 气泡 -->
    <circle cx="17" cy="6" r="2" fill="black"/>
    <circle cx="19" cy="2" r="1.5" fill="black"/>
</svg>