<svg width="24" height="24" viewBox="0 0 24 24" fill="none" xmlns="http://www.w3.org/2000/svg">
    <!-- OLED 显示器：标准屏幕底座造型 + 内部数据行镂空 -->
    <path fill-rule="evenodd" clip-rule="evenodd" d="M2 5C2 3.34 3.34 2 5 2H19C20.66 2 22 3.34 22 5V15C22 16.66 20.66 18 19 18H13V20H16C16.55 20 17 20.45 17 21C17 21.55 16.55 22 16 22H8C7.45 22 7 21.55 7 21C7 20.45 7.45 20 8 20H11V18H5C3.34 18 2 16.66 2 15V5ZM6 6C5.45 6 5 6.45 5 7V9C5 9.55 5.45 10 6 10H18C18.55 10 19 9.55 19 9V7C19 6.45 18.55 6 18 6H6ZM5 12C5 11.45 5.45 11 6 11H14C14.55 11 15 11.45 15 12V14C15 14.55 14.55 15 14 15H6C5.45 15 5 14.55 5 14V12Z" fill="black"/>
</svg>