<svg width="24" height="24" viewBox="0 0 24 24" fill="none" xmlns="http://www.w3.org/2000/svg">
    <!-- 蓝牙图标 -->
    <path d="M14.34 12.03L17.43 15.12C17.79 15.48 17.79 16.07 17.43 16.43L12.7 21.16C12.32 21.54 11.67 21.27 11.67 20.73V13.83L7.75 17.75C7.36 18.14 6.73 18.14 6.34 17.75C5.95 17.36 5.95 16.73 6.34 16.34L10.65 12.03L6.34 7.72C5.95 7.33 5.95 6.7 6.34 6.31C6.73 5.92 7.36 5.92 7.75 6.31L11.67 10.23V3.33C11.67 2.79 12.32 2.52 12.7 2.9L17.43 7.63C17.79 7.99 17.79 8.58 17.43 8.94L14.34 12.03ZM13.67 6.16L15.51 8L13.67 9.84V6.16ZM13.67 17.9L15.51 16.06L13.67 14.22V17.9Z" fill="black"/>
</svg>