<svg width="24" height="24" viewBox="0 0 24 24" fill="none" xmlns="http://www.w3.org/2000/svg">
    <!-- MQ2: 圆形传感器底座 + 内部气体/烟雾符号 -->
    <path fill-rule="evenodd" clip-rule="evenodd" d="M12 2C6.48 2 2 6.48 2 12C2 17.52 6.48 22 12 22C17.52 22 22 17.52 22 12C22 6.48 17.52 2 12 2ZM12 20C7.58 20 4 16.42 4 12C4 7.58 7.58 4 12 4C16.42 4 20 7.58 20 12C20 16.42 16.42 20 12 20ZM11.29 7.71C11.68 7.32 12.31 7.32 12.7 7.71L15.29 10.3C15.68 10.69 15.68 11.32 15.29 11.71C14.9 12.1 14.27 12.1 13.88 11.71L12 9.83L10.12 11.71C9.73 12.1 9.1 12.1 8.71 11.71C8.32 11.32 8.32 10.69 8.71 10.3L11.29 7.71ZM11.29 12.71C11.68 12.32 12.31 12.32 12.7 12.71L15.29 15.3C15.68 15.69 15.68 16.32 15.29 16.71C14.9 17.1 14.27 17.1 13.88 16.71L12 14.83L10.12 16.71C9.73 17.1 9.1 17.1 8.71 16.71C8.32 16.32 8.32 15.69 8.71 15.3L11.29 12.71Z" fill="black"/>
</svg>