<svg width="24" height="24" viewBox="0 0 24 24" fill="none" xmlns="http://www.w3.org/2000/svg">
    <!-- 访客图标：挂绳工作证 -->
    <path fill-rule="evenodd" clip-rule="evenodd" d="M16 2H8C7.44772 2 7 2.44772 7 3V5H5C3.89543 5 3 5.89543 3 7V19C3 20.1046 3.89543 21 5 21H19C20.1046 21 21 20.1046 21 19V7C21 5.89543 20.1046 5 19 5H17V3C17 2.44772 16.5523 2 16 2ZM9 4V5H15V4H9ZM12 9C13.1046 9 14 9.89543 14 11C14 12.1046 13.1046 13 12 13C10.8954 13 10 12.1046 10 11C10 9.89543 10.8954 9 12 9ZM8 16C8 14.8954 9.79086 14 12 14C14.2091 14 16 14.8954 16 16V17H8V16Z" fill="black"/>
</svg>